<?xml version="1.0" encoding="UTF-8"?>
<!DOCTYPE svg PUBLIC "-//W3C//DTD SVG 1.1//EN" "http://www.w3.org/Graphics/SVG/1.1/DTD/svg11.dtd">
<!-- Creator: CorelDRAW 2021 (64-Bit) -->
<svg xmlns="http://www.w3.org/2000/svg" xml:space="preserve" width="34mm" height="7mm" version="1.1" style="shape-rendering:geometricPrecision; text-rendering:geometricPrecision; image-rendering:optimizeQuality; fill-rule:evenodd; clip-rule:evenodd"
viewBox="0 0 3400 700"
 xmlns:xlink="http://www.w3.org/1999/xlink"
 xmlns:xodm="http://www.corel.com/coreldraw/odm/2003">
 <defs>
  <style type="text/css">
   <![CDATA[
    .fil3 {fill:#333333}
    .fil2 {fill:#339966}
    .fil1 {fill:red}
    .fil0 {fill:black;fill-rule:nonzero}
   ]]>
  </style>
 </defs>
 <g id="Capa_x0020_1">
  <metadata id="CorelCorpID_0Corel-Layer"/>
  <path class="fil0" d="M1027.36 173.05l0 114.3 5.58 0c17.85,0 30.76,-5.57 38.8,-16.72 7.97,-11.15 13.12,-27.59 15.31,-49.32l8.04 0 0 146.9 -8.04 0c-1.62,-16.02 -5.15,-29.14 -10.44,-39.3 -5.36,-10.23 -11.5,-17.08 -18.56,-20.6 -7.05,-3.53 -17.28,-5.3 -30.69,-5.3l0 78.88c0,15.45 0.64,24.84 1.98,28.29 1.27,3.46 3.74,6.28 7.34,8.47 3.59,2.19 9.38,3.32 17.35,3.32l16.79 0c26.18,0 47.2,-6.07 63.01,-18.14 15.8,-12.06 27.16,-30.47 34,-55.31l7.7 0 -12.63 89.11 -242.21 0 0 -7.2 9.24 0c8.11,0 14.67,-1.48 19.61,-4.37 3.6,-1.98 6.35,-5.29 8.26,-10.02 1.48,-3.32 2.26,-12.06 2.26,-26.25l0 -184.99c0,-12.77 -0.36,-20.6 -1.06,-23.56 -1.34,-4.87 -3.88,-8.61 -7.62,-11.22 -5.22,-3.88 -12.35,-5.85 -21.45,-5.85l-9.24 0 0 -7.2 234.52 0 0 82.97 -8.05 0c-3.95,-20.32 -9.59,-34.85 -16.79,-43.67 -7.2,-8.82 -17.36,-15.31 -30.55,-19.48 -7.69,-2.47 -22.08,-3.74 -43.25,-3.74l-29.21 0z"/>
  <path id="_1" class="fil0" d="M1462.11 339.42l-10.58 98.21 -248.49 0 0 -7.2 9.24 0c8.11,0 14.67,-1.48 19.61,-4.37 3.6,-1.98 6.35,-5.29 8.26,-10.02 1.48,-3.32 2.26,-12.06 2.26,-26.25l0 -184.99c0,-14.46 -0.78,-23.49 -2.26,-27.09 -1.55,-3.6 -4.59,-6.77 -9.17,-9.45 -4.59,-2.75 -10.8,-4.09 -18.7,-4.09l-9.24 0 0 -7.2 149.43 0 0 7.2 -12.28 0c-8.11,0 -14.67,1.48 -19.68,4.37 -3.6,1.98 -6.42,5.29 -8.54,10.02 -1.48,3.31 -2.26,12.06 -2.26,26.24l0 179.07c0,14.32 0.85,23.49 2.47,27.44 1.63,3.95 4.87,6.85 9.67,8.82 3.46,1.2 11.78,1.84 24.9,1.84l23.29 0c14.81,0 27.16,-2.61 37.04,-7.83 9.87,-5.23 18.48,-13.48 25.68,-24.77 7.19,-11.29 14.04,-27.94 20.46,-49.95l8.89 0z"/>
  <path id="_2" class="fil0" d="M1631.43 430.43l0 7.2 -146.04 0 0 -7.2 9.24 0c8.11,0 14.67,-1.48 19.61,-4.37 3.6,-1.98 6.35,-5.29 8.26,-10.02 1.48,-3.32 2.26,-12.06 2.26,-26.25l0 -184.99c0,-14.46 -0.78,-23.49 -2.26,-27.09 -1.55,-3.6 -4.59,-6.77 -9.17,-9.45 -4.59,-2.75 -10.8,-4.09 -18.7,-4.09l-9.24 0 0 -7.2 146.04 0 0 7.2 -9.24 0c-8.04,0 -14.53,1.48 -19.47,4.37 -3.53,1.98 -6.35,5.29 -8.4,10.02 -1.48,3.31 -2.26,12.06 -2.26,26.24l0 184.99c0,14.47 0.78,23.5 2.33,27.1 1.62,3.6 4.66,6.77 9.24,9.45 4.59,2.75 10.8,4.09 18.56,4.09l9.24 0z"/>
  <path id="_3" class="fil0" d="M1746.86 156.97l138.21 173.84 0 -120.5c0,-17.01 -2.4,-28.44 -7.27,-34.43 -6.63,-8.12 -17.78,-12 -33.37,-11.71l0 -7.2 92.71 0 0 7.2c-11.86,1.55 -19.83,3.52 -23.92,5.92 -4.02,2.47 -7.2,6.42 -9.52,11.93 -2.26,5.5 -3.39,14.95 -3.39,28.29l0 233.67 -6.99 0 -189.43 -233.96 0 178.93c0,16.23 3.67,27.23 11.07,32.95 7.41,5.71 15.95,8.53 25.47,8.53l6.64 0 0 7.2 -99.91 0 0 -7.2c15.52,-0.14 26.25,-3.31 32.39,-9.59 6.06,-6.28 9.1,-16.86 9.1,-31.89l0 -198.47 -5.86 -7.27c-5.92,-7.62 -11.14,-12.62 -15.73,-15.02 -4.52,-2.4 -11.08,-3.74 -19.61,-4.02l0 -7.2 99.41 0z"/>
  <path id="_4" class="fil0" d="M2146.33 150.62l2.12 93.55 -8.47 0c-4.02,-23.42 -13.83,-42.26 -29.49,-56.51 -15.73,-14.25 -32.67,-21.38 -50.87,-21.38 -14.11,0 -25.26,3.74 -33.44,11.29 -8.26,7.48 -12.35,16.16 -12.35,25.89 0,6.21 1.48,11.72 4.38,16.58 3.95,6.42 10.37,12.84 19.26,19.19 6.49,4.52 21.44,12.63 44.87,24.2 32.88,16.09 55.03,31.33 66.46,45.65 11.36,14.32 17,30.69 17,49.18 0,23.42 -9.17,43.53 -27.44,60.39 -18.28,16.86 -41.49,25.33 -69.64,25.33 -8.82,0 -17.21,-0.92 -25.04,-2.68 -7.91,-1.77 -17.78,-5.15 -29.64,-10.16 -6.63,-2.75 -12.06,-4.09 -16.37,-4.09 -3.59,0 -7.33,1.41 -11.35,4.16 -4.03,2.82 -7.27,7.05 -9.74,12.77l-7.2 0 0 -105.83 7.2 0c6.07,29.7 17.78,52.42 35.06,68.01 17.36,15.6 35.99,23.43 56.02,23.43 15.45,0 27.8,-4.24 36.97,-12.63 9.18,-8.4 13.76,-18.13 13.76,-29.35 0,-6.56 -1.76,-12.98 -5.29,-19.19 -3.53,-6.21 -8.82,-12.07 -16.02,-17.71 -7.19,-5.58 -19.89,-12.84 -38.09,-21.8 -25.54,-12.49 -43.89,-23.21 -55.04,-32.03 -11.07,-8.82 -19.61,-18.7 -25.61,-29.57 -5.99,-10.93 -8.96,-22.93 -8.96,-35.98 0,-22.36 8.19,-41.41 24.63,-57.15 16.36,-15.73 37.04,-23.56 62.01,-23.56 9.1,0 17.92,1.06 26.46,3.24 6.49,1.7 14.39,4.73 23.71,9.18 9.31,4.44 15.8,6.63 19.54,6.63 3.6,0 6.42,-1.06 8.47,-3.25 2.04,-2.18 4.02,-7.48 5.78,-15.8l6.35 0z"/>
  <path id="_5" class="fil0" d="M2358.49 357.62l-98.14 0 -12.21 27.38c-3.88,9.17 -5.78,16.79 -5.78,22.79 0,7.97 3.17,13.82 9.45,17.63 3.74,2.19 12.91,3.88 27.52,5.01l0 7.2 -93.2 0 0 -7.2c10.01,-1.55 18.34,-5.78 24.76,-12.63 6.49,-6.91 14.53,-21.16 23.99,-42.75l100.18 -223.58 3.96 0 101.1 229.79c9.66,22.01 17.57,35.91 23.77,41.62 4.73,4.38 11.29,6.85 19.9,7.55l0 7.2 -135.6 0 0 -7.2 5.57 0c10.87,0 18.56,-1.55 22.93,-4.65 3.03,-2.19 4.52,-5.44 4.52,-9.6 0,-2.54 -0.36,-5.15 -1.2,-7.83 -0.29,-1.2 -2.33,-6.49 -6.21,-15.73l-15.31 -35zm-6.63 -15.24l-41.84 -95.6 -42.83 95.6 84.67 0z"/>
  <rect class="fil1" x="140.35" y="129.01" width="676.56" height="70"/>
  <rect class="fil2" x="140.35" y="325.87" width="676.56" height="70"/>
  <rect class="fil3" x="140.35" y="541.84" width="3117.44" height="50"/>
  <rect class="fil1" x="2581.23" y="137.1" width="676.56" height="70"/>
  <rect class="fil2" x="2581.23" y="333.96" width="676.56" height="70"/>
 </g>
</svg>
